{"title":"Lokmanya Ek Yug Purush (2015) Marathi - x264 - 1 CD - DVDRip - E","uid":12044759,"size":738651428,"categoryP":"video","categoryS":"movies","magnet":"?xt=urn:btih:48735dd81fd8bbe87aef129db31cb80509b00868&amp;dn=Lokmanya+Ek+Yug+Purush+%282015%29+Marathi+-+x264+-+1+CD+-+DVDRip+-+E&amp;tr=udp%3A%2F%2Ftracker.openbittorrent.com%3A80&amp;tr=udp%3A%2F%2Fopen.demonii.com%3A1337&amp;tr=udp%3A%2F%2Ftracker.coppersurfer.tk%3A6969&amp;tr=udp%3A%2F%2Fexodus.desync.com%3A6969","seeders":2,"leechers":3,"uploader":"SS132203","files":4,"time":1434871149,"description":"Lokmanya Ek Yug Purush (2015) Marathi - x264 - 1 CD - DVDRip - ESUBS - Team Telly Exclusive \n &lt;a href=&quot;\nhttp://imgsparrow.co/image/aY&quot; rel=&quot;nofollow&quot; target=&quot;_NEW&quot;&gt;\nhttp://imgsparrow.co/image/aY&lt;/a&gt;\n &lt;a href=&quot;\nhttp://imgsparrow.co/image/aR&quot; rel=&quot;nofollow&quot; target=&quot;_NEW&quot;&gt;\nhttp://imgsparrow.co/image/aR&lt;/a&gt;\n\nInfo : - \n\nAll Credit Goes To Team Telly (Thank Them Not Me)\nExclusive First On Net\n\nFormat                                   : MPEG-4\nFormat profile                           : Base Media\nCodec ID                                 : isom\nFile size                                : 699 MiB\nDuration                                 : 2h 17mn\nOverall bit rate mode                    : Variable\nOverall bit rate                         : 709 Kbps\nEncoded date                             : UTC 2015-06-21 07:10:27\nTagged date                              : UTC 2015-06-21 07:10:27\n\nVideo\nID                                       : 1\nFormat                                   : AVC\nFormat/Info                              : Advanced Video Codec\nFormat profile                           : &lt;a class=&quot;__cf_email__&quot; href=&quot;/cdn-cgi/l/email-protection&quot; data-cfemail=&quot;e8a5898186a8a4dbc6d9&quot;&gt;[email&amp;#160;protected]&lt;/a&gt;&lt;script data-cfhash='f9e31' type=&quot;text/javascript&quot;&gt;\n/* &lt;![CDATA[ */!function(){try{var t=&quot;currentScript&quot;in document?document.currentScript:function(){for(var t=document.getElementsByTagName(&quot;script&quot;),e=t.length;e--;)if(t[e].getAttribute(&quot;data-cfhash&quot;))return t[e]}();if(t&amp;&amp;t.previousSibling){var e,r,n,i,c=t.previousSibling,a=c.getAttribute(&quot;data-cfemail&quot;);if(a){for(e=&quot;&quot;,r=parseInt(a.substr(0,2),16),n=2;a.length-n;n+=2)i=parseInt(a.substr(n,2),16)^r,e+=String.fromCharCode(i);e=document.createTextNode(e),c.parentNode.replaceChild(e,c)}t.parentNode.removeChild(t);}}catch(u){}}()/* ]]&gt; */&lt;/script&gt;\nFormat settings, CABAC                   : Yes\nFormat settings, ReFrames                : 3 frames\nCodec ID                                 : avc1\nCodec ID/Info                            : Advanced Video Coding\nDuration                                 : 2h 17mn\nBit rate                                 : 644 Kbps\nMaximum bit rate                         : 10.5 Mbps\nWidth                                    : 720 pixels\nHeight                                   : 352 pixels\nDisplay aspect ratio                     : 2.045\nFrame rate mode                          : Constant\nFrame rate                               : 23.976 fps\nColor space                              : YUV\nChroma subsampling                       : 4:2:0\nBit depth                                : 8 bits\nScan type                                : Progressive\nBits/(Pixel*Frame)                       : 0.106\nStream size                              : 632 MiB (90%)\nWriting library                          : x264 core 146 r2538 121396c\nEncoding settings                        : cabac=1 / ref=3 / deblock=1:-1:-1 / analyse=0x1:0x111 / me=hex / subme=6 / psy=1 / psy_rd=1.00:0.15 / mixed_ref=1 / \n\nme_range=16 / chroma_me=1 / trellis=2 / 8x8dct=0 / cqm=0 / deadzone=21,11 / fast_pskip=1 / chroma_qp_offset=-3 / threads=6 / lookahead_threads=1 / \n\nsliced_threads=0 / nr=0 / decimate=1 / interlaced=0 / bluray_compat=0 / constrained_intra=0 / bframes=3 / b_pyramid=0 / b_adapt=2 / b_bias=0 / \n\ndirect=2 / weightb=1 / open_gop=0 / weightp=2 / keyint=230 / keyint_min=23 / scenecut=48 / intra_refresh=0 / rc_lookahead=48 / rc=abr / mbtree=1 / \n\nbitrate=644 / ratetol=1.0 / qcomp=0.60 / qpmin=0 / qpmax=69 / qpstep=4 / vbv_maxrate=14000 / vbv_bufsize=14000 / nal_hrd=none / filler=0 / \n\nip_ratio=1.40 / aq=1:1.00\nEncoded date                             : UTC 2015-06-21 07:10:27\nTagged date                              : UTC 2015-06-21 07:10:36\nColor primaries                          : BT.601 NTSC\nTransfer characteristics                 : BT.601\nMatrix coefficients                      : BT.601\n\nAudio\nID                                       : 2\nFormat                                   : AAC\nFormat/Info                              : Advanced Audio Codec\nFormat profile                           : LC\nCodec ID                                 : 40\nDuration                                 : 2h 17mn\nBit rate mode                            : Variable\nBit rate                                 : 64.0 Kbps\nMaximum bit rate                         : 117 Kbps\nChannel(s)                               : 2 channels\nChannel positions                        : Front: L R\nSampling rate                            : 48.0 KHz\nCompression mode                         : Lossy\nStream size                              : 63.1 MiB (9%)\n\nScreens : - \n &lt;a href=&quot;\nhttp://imgsparrow.co/image/a0&quot; rel=&quot;nofollow&quot; target=&quot;_NEW&quot;&gt;\nhttp://imgsparrow.co/image/a0&lt;/a&gt; &lt;a href=&quot;\nhttp://imgsparrow.co/image/aB&quot; rel=&quot;nofollow&quot; target=&quot;_NEW&quot;&gt;\nhttp://imgsparrow.co/image/aB&lt;/a&gt; &lt;a href=&quot;\nhttp://imgsparrow.co/image/aK&quot; rel=&quot;nofollow&quot; target=&quot;_NEW&quot;&gt;\nhttp://imgsparrow.co/image/aK&lt;/a&gt; &lt;a href=&quot;\nhttp://imgsparrow.co/image/a2&quot; rel=&quot;nofollow&quot; target=&quot;_NEW&quot;&gt;\nhttp://imgsparrow.co/image/a2&lt;/a&gt; &lt;a href=&quot;\nhttp://imgsparrow.co/image/a3&quot; rel=&quot;nofollow&quot; target=&quot;_NEW&quot;&gt;\nhttp://imgsparrow.co/image/a3&lt;/a&gt; &lt;a href=&quot;\nhttp://imgsparrow.co/image/ai&quot; rel=&quot;nofollow&quot; target=&quot;_NEW&quot;&gt;\nhttp://imgsparrow.co/image/ai&lt;/a&gt; &lt;a href=&quot;\nhttp://imgsparrow.co/image/aV&quot; rel=&quot;nofollow&quot; target=&quot;_NEW&quot;&gt;\nhttp://imgsparrow.co/image/aV&lt;/a&gt; &lt;a href=&quot;\nhttp://imgsparrow.co/image/al&quot; rel=&quot;nofollow&quot; target=&quot;_NEW&quot;&gt;\nhttp://imgsparrow.co/image/al&lt;/a&gt; &lt;a href=&quot;\nhttp://imgsparrow.co/image/as&quot; rel=&quot;nofollow&quot; target=&quot;_NEW&quot;&gt;\nhttp://imgsparrow.co/image/as&lt;/a&gt; &lt;a href=&quot;\nhttp://imgsparrow.co/image/aS&quot; rel=&quot;nofollow&quot; target=&quot;_NEW&quot;&gt;\nhttp://imgsparrow.co/image/aS&lt;/a&gt;\n &lt;a href=&quot;\nhttp://imgsparrow.co/image/N2&quot; rel=&quot;nofollow&quot; target=&quot;_NEW&quot;&gt;\nhttp://imgsparrow.co/image/N2&lt;/a&gt;","torrent":{"xt":"urn:btih:48735dd81fd8bbe87aef129db31cb80509b00868","amp;dn":"Lokmanya+Ek+Yug+Purush+%282015%29+Marathi+-+x264+-+1+CD+-+DVDRip+-+E","amp;tr":["udp%3A%2F%2Ftracker.openbittorrent.com%3A80","udp%3A%2F%2Fopen.demonii.com%3A1337","udp%3A%2F%2Ftracker.coppersurfer.tk%3A6969","udp%3A%2F%2Fexodus.desync.com%3A6969"],"infoHash":"48735dd81fd8bbe87aef129db31cb80509b00868","infoHashBuffer":{"type":"Buffer","data":[72,115,93,216,31,216,187,232,122,239,18,157,179,28,184,5,9,176,8,104]},"announce":[],"urlList":[]}}